<?xml version="1.1" encoding="UTF-8"?>
<svg enable-background="new 0 0 32 32" version="1.1" viewBox="0 0 32 32" xml:space="preserve"
     xmlns="http://www.w3.org/2000/svg" xmlns:cc="http://creativecommons.org/ns#"
     xmlns:dc="http://purl.org/dc/elements/1.1/" xmlns:rdf="http://www.w3.org/1999/02/22-rdf-syntax-ns#"><metadata><rdf:RDF><cc:Work rdf:about=""><dc:format>image/svg+xml</dc:format><dc:type
        rdf:resource="http://purl.org/dc/dcmitype/StillImage"/><dc:title/></cc:Work></rdf:RDF></metadata>
    <path d="m31.881 12.557c-0.277-0.799-0.988-1.384-1.844-1.511l-8.326-1.238-3.619-7.514c-0.381-0.789-1.196-1.294-2.092-1.294s-1.711 0.505-2.092 1.294l-3.619 7.514-8.327 1.238c-0.855 0.127-1.566 0.712-1.842 1.511-0.275 0.801-0.067 1.683 0.537 2.285l6.102 6.092-1.415 8.451c-0.144 0.851 0.225 1.705 0.948 2.203 0.397 0.273 0.864 0.412 1.331 0.412 0.384 0 0.769-0.094 1.118-0.281l7.259-3.908 7.26 3.908c0.349 0.187 0.734 0.281 1.117 0.281 0.467 0 0.934-0.139 1.332-0.412 0.723-0.498 1.09-1.352 0.947-2.203l-1.416-8.451 6.104-6.092c0.603-0.603 0.81-1.485 0.537-2.285zm-8.293 6.806c-0.512 0.51-0.744 1.229-0.627 1.934l1.416 8.451-7.26-3.906c-0.348-0.188-0.732-0.281-1.118-0.281-0.384 0-0.769 0.094-1.117 0.281l-7.26 3.906 1.416-8.451c0.118-0.705-0.114-1.424-0.626-1.934l-6.102-6.092 8.326-1.24c0.761-0.113 1.416-0.589 1.743-1.268l3.621-7.512 3.62 7.513c0.328 0.679 0.982 1.154 1.742 1.268l8.328 1.24-6.102 6.091z"
          fill="#333"/>
    <path d="m7.6047 29.687c0.013898-0.046141 0.34072-1.9715 0.72626-4.2786 0.80247-4.8019 0.79956-4.7708 0.50505-5.3932-0.1497-0.31634-0.3418-0.51895-3.3507-3.534-1.7555-1.7591-3.1822-3.2071-3.1703-3.2178 0.011857-0.01067 1.9415-0.30484 4.2882-0.65369 2.5335-0.37663 4.3597-0.66959 4.4958-0.7212 0.34161-0.12954 0.6829-0.36516 0.9177-0.63358 0.21961-0.25104 0.37207-0.55548 2.7502-5.4915 0.65148-1.3522 1.2058-2.4603 1.2319-2.4624 0.02606-0.00212 0.29572 0.51132 0.59924 1.141 2.8959 6.0075 3.1528 6.5276 3.3351 6.7522 0.23269 0.28671 0.61486 0.56336 0.95301 0.68987 0.15472 0.05789 1.8356 0.32853 4.5113 0.72635 2.3456 0.34875 4.2744 0.64276 4.2864 0.65337 0.01195 0.0106-1.4033 1.4477-3.145 3.1935-1.7417 1.7458-3.2134 3.253-3.2705 3.3492-0.1904 0.32078-0.29378 0.70521-0.29338 1.091 2.39e-4 0.24528 0.23281 1.7479 0.71294 4.6067 0.39191 2.3335 0.70769 4.2485 0.70174 4.2556-6e-3 0.0071-1.6805-0.88595-3.7211-1.9846-2.0407-1.0987-3.8363-2.0376-3.9902-2.0864-0.3857-0.12228-0.99914-0.11914-1.3736 7e-3 -0.15635 0.05267-1.9472 0.99108-3.9797 2.0854-2.0325 1.0943-3.7066 1.9896-3.7204 1.9896-0.013742 0-0.013615-0.03775 2.877e-4 -0.08389z"
          fill="#ffc107" stroke-width=".047939"/></svg>
