<?xml version="1.0" encoding="UTF-8" standalone="no"?>
<svg
   xmlns:dc="http://purl.org/dc/elements/1.1/"
   xmlns:cc="http://creativecommons.org/ns#"
   xmlns:rdf="http://www.w3.org/1999/02/22-rdf-syntax-ns#"
   xmlns:svg="http://www.w3.org/2000/svg"
   xmlns="http://www.w3.org/2000/svg"
   xmlns:sodipodi="http://sodipodi.sourceforge.net/DTD/sodipodi-0.dtd"
   xmlns:inkscape="http://www.inkscape.org/namespaces/inkscape"
   enable-background="new 0 0 32 32"
   height="32px"
   id="Layer_1"
   version="1.1"
   viewBox="0 0 32 32"
   width="32px"
   xml:space="preserve"
   sodipodi:docname="favourite2.svg"
   inkscape:version="0.92.4 (5da689c313, 2019-01-14)"><metadata
     id="metadata4858"><rdf:RDF><cc:Work
         rdf:about=""><dc:format>image/svg+xml</dc:format><dc:type
           rdf:resource="http://purl.org/dc/dcmitype/StillImage" /><dc:title></dc:title></cc:Work></rdf:RDF></metadata><defs
     id="defs4856" /><sodipodi:namedview
     pagecolor="#ffffff"
     bordercolor="#666666"
     borderopacity="1"
     objecttolerance="10"
     gridtolerance="10"
     guidetolerance="10"
     inkscape:pageopacity="0"
     inkscape:pageshadow="2"
     inkscape:window-width="1920"
     inkscape:window-height="1017"
     id="namedview4854"
     showgrid="false"
     inkscape:zoom="20.85965"
     inkscape:cx="6.3394272"
     inkscape:cy="14.48287"
     inkscape:window-x="-8"
     inkscape:window-y="-8"
     inkscape:window-maximized="1"
     inkscape:current-layer="Layer_1" /><path
     d="M31.881,12.557c-0.277-0.799-0.988-1.384-1.844-1.511l-8.326-1.238l-3.619-7.514  C17.711,1.505,16.896,1,16,1c-0.896,0-1.711,0.505-2.092,1.294l-3.619,7.514l-8.327,1.238c-0.855,0.127-1.566,0.712-1.842,1.511  c-0.275,0.801-0.067,1.683,0.537,2.285l6.102,6.092l-1.415,8.451C5.2,30.236,5.569,31.09,6.292,31.588  C6.689,31.861,7.156,32,7.623,32c0.384,0,0.769-0.094,1.118-0.281L16,27.811l7.26,3.908C23.609,31.906,23.994,32,24.377,32  c0.467,0,0.934-0.139,1.332-0.412c0.723-0.498,1.09-1.352,0.947-2.203l-1.416-8.451l6.104-6.092  C31.947,14.239,32.154,13.357,31.881,12.557z M23.588,19.363c-0.512,0.51-0.744,1.229-0.627,1.934l1.416,8.451l-7.26-3.906  c-0.348-0.188-0.732-0.281-1.118-0.281c-0.384,0-0.769,0.094-1.117,0.281l-7.26,3.906l1.416-8.451  c0.118-0.705-0.114-1.424-0.626-1.934l-6.102-6.092l8.326-1.24c0.761-0.113,1.416-0.589,1.743-1.268L16,3.251l3.62,7.513  c0.328,0.679,0.982,1.154,1.742,1.268l8.328,1.24L23.588,19.363z"
     id="star"
     fill="#333333" /><g
     inkscape:groupmode="layer"
     id="layer2"
     inkscape:label="Layer 1"
     style="display:inline" /><path
     style="fill:#ffc107;fill-opacity:1;fill-rule:nonzero;stroke-width:0.04793944"
     d="M 7.6046599,29.686557 C 7.6185575,29.640416 7.9453751,27.715048 8.3309213,25.407962 9.1333931,20.606021 9.1304808,20.637124 8.8359725,20.014775 8.6862753,19.698438 8.4941686,19.495825 5.4852692,16.480824 3.7297233,14.721718 2.3030687,13.273716 2.3149256,13.263041 c 0.011857,-0.01067 1.9415328,-0.304836 4.2881686,-0.653691 2.5334605,-0.37663 4.3597178,-0.669589 4.4958198,-0.7212 0.341611,-0.129539 0.682897,-0.365162 0.917701,-0.633578 0.219606,-0.251042 0.372069,-0.555476 2.750166,-5.4914614 0.651477,-1.3522087 1.205824,-2.4602953 1.231881,-2.4624146 0.02606,-0.00212 0.295716,0.5113245 0.599243,1.1409865 2.895878,6.0074585 3.152787,6.5275955 3.335106,6.7522345 0.232694,0.286708 0.614863,0.563355 0.953007,0.689871 0.154723,0.05789 1.835616,0.328527 4.511279,0.726352 2.345568,0.348747 4.274447,0.642761 4.286397,0.653367 0.01195,0.0106 -1.403291,1.447688 -3.144982,3.193517 -1.74169,1.74583 -3.213433,3.252952 -3.27054,3.349162 -0.190405,0.320782 -0.293781,0.705207 -0.293378,1.090989 2.39e-4,0.245283 0.232812,1.747945 0.71294,4.606666 0.391908,2.333452 0.70769,4.248482 0.701738,4.25562 -0.006,0.0071 -1.680466,-0.885948 -3.721141,-1.984637 -2.040675,-1.098688 -3.836282,-2.03755 -3.99024,-2.08636 -0.385696,-0.122278 -0.99914,-0.119143 -1.373649,0.007 -0.15635,0.05267 -1.947204,0.991085 -3.979676,2.085365 -2.0324719,1.094281 -3.7066467,1.989601 -3.720389,1.989601 -0.013742,0 -0.013615,-0.03775 2.877e-4,-0.08389 z"
     id="path5412"
     inkscape:connector-curvature="0" /></svg>