<svg version="1" xmlns="http://www.w3.org/2000/svg" width="933.333" height="933.333" viewBox="0 0 700 700"><path d="M402.8 30.5c-.2.2-5.9.6-12.8 1-12.8.7-14.9.9-24.1 1.9-3 .3-8.1.8-11.4 1.1-3.3.4-7.1.8-8.5 1-1.4.3-5 .7-8 1-3 .4-6.2.8-7 1-.8.2-3.7.7-6.5 1-2.7.4-6.1.8-7.5 1.1-1.4.2-5.6.9-9.5 1.5-5.5.8-33.7 6.3-49.1 9.5-4.2.8-11.3 5.5-15.4 10.2-5.9 6.7-5.7 6.4-7.6 12.8-3.5 12.1-.2 25.7 8.4 34.7 3.8 4 12.6 9.7 15 9.7 2.2 0 23.8 15.4 44 31.3l6.3 5-9.7 4.3c-9.8 4.4-35 17-36.9 18.4-.5.4-3.5 2.1-6.5 3.7-7.4 4-17.7 10-22 12.8-13.1 8.4-32.9 21.6-34.1 22.7-.8.7-3.4 2.9-5.9 4.8-9 7-24.4 21.8-34 32.9-15.2 17.6-29.7 39.9-40.5 62.6-5.2 11.1-14.2 34.5-16 42.1-.3 1-2 8.1-3.9 15.8-1.9 7.6-3.7 15.9-4.1 18.5-.5 4.5-1 7.3-2 13.6-2.6 16.3-2.6 62.9 0 76.6.3 1.3.7 4.1 1 6.4 2.4 16.3 7 35.2 12.3 49.9l2.9 8-3.7 8c-7.4 16-8.1 27.9-2.8 46.1 3.8 13.2 11.3 26.9 19.2 35.3 9.9 10.6 28.4 20.6 42.3 22.8 2.1.3 4.2.8 4.6 1.1 1.1.7 19.4.5 24.2-.2 5.3-.8 10.4-2.2 19.8-5.2l7.8-2.5 10.2 3.8c18.5 6.8 37.8 12.1 52.7 14.4 4.1.6 8.6 1.3 10 1.6 13.9 2.2 48.5 2.2 60-.1 1.3-.2 4.2-.7 6.5-1.1 11.9-1.7 30.1-6.9 42-11.9 1.7-.7 5.9-2.5 9.5-4 9.7-4.1 28.2-14 39-20.8 9-5.7 30.5-21.4 34.6-25.2.6-.5 4.6-4.2 8.9-8 49.3-44.1 90.2-107.8 106.9-166.4 3.1-10.6 8.1-32.9 9-40 .2-1.4.7-5.1 1.1-8.1.4-3 .9-6.6 1.1-8 1.8-12 2.5-51.5 1-66-3-31.2-9.9-57.9-20.4-80-4.4-9.1-4.3-8.8-1.9-11.2 1.2-1.3 4-4.6 6.2-7.3 2.2-2.8 4.3-5.2 4.6-5.5.5-.4 18.9-22.1 25.7-30.5 8.1-9.7 10.6-14.4 12.2-21.8 1.6-7.8.8-14.2-2.9-25.7-6.6-20.3-19.7-29.9-39.5-28.8-10.4.5-17.6 3.7-25.3 11.2l-5.7 5.6-2.6-4.7c-14.9-27.3-38.8-50.2-68-65.1-16.3-8.3-32.1-13.7-46.5-15.7-2.2-.3-5-.8-6.2-1-4.9-1.1-39.6-2.7-40.5-2z"/></svg>